# xmcd
#
# Track frame offsets: 
#        150
#        28352
#        43075
#        57640
#        71235
#        85377
#        86595
#        108952
#        124525
#        137772
#        154335
#        164527
#        165465
#        185537
#        187037
#        205990
#        212010
#
# Disc length: 3007 seconds
#
# Revision: 0
# Processed by: cddbd v1.4b42PL1 Copyright (c) Steve Scherf et al.
# Submitted via: ExactAudioCopy v0.90a11
#
DISCID=010bbd11
DTITLE=Various Artist - Ol' Skool Butta Volume 2
DYEAR=1900
DGENRE=
TTITLE0=Intro
TTITLE1=The 900 Number - DJ Mark The 45 King
TTITLE2=Sponnie's Rap - Spoonie Gee
TTITLE3=Black Is Back - Lakim Shabazz
TTITLE4=Thinking Of A Master Plan - YZ
TTITLE5=Shout Outs
TTITLE6=Can I Get A Soul Clap - The Fantastic Five
TTITLE7=Fresh Fly Wild And Bold - Cold Crush Brothers
TTITLE8=Shout Outs
TTITLE9=The Godfather - Spoonie Gee
TTITLE10=Take It Off - Spoonie Gee
TTITLE11=Shout Outs
TTITLE12=In Control Of Things - YZ
TTITLE13=Shout Outs
TTITLE14=The Hitman - Grandmaster Caz
TTITLE15=Flavor Unit Assassination Squad - Original Flavor Unit
TTITLE16=Make You Shake - Ultramagnetic MCs
EXTD=ibeblunt@blackplanet.com - I got mad old school joints on CD.
EXTT0=
EXTT1=
EXTT2=
EXTT3=
EXTT4=
EXTT5=
EXTT6=
EXTT7=
EXTT8=
EXTT9=
EXTT10=
EXTT11=
EXTT12=
EXTT13=
EXTT14=
EXTT15=
EXTT16=
PLAYORDER=
